<svg width="17" height="17" viewBox="0 0 17 17" fill="none" xmlns="http://www.w3.org/2000/svg">
<path d="M4.88505 10.8217C3.94187 11.3833 1.46891 12.5301 2.97511 13.965C3.71087 14.666 4.53033 15.1673 5.56058 15.1673H11.4394C12.4697 15.1673 13.2891 14.666 14.0249 13.965C15.5311 12.5301 13.0581 11.3833 12.115 10.8217C9.90321 9.50474 7.09679 9.50474 4.88505 10.8217Z" stroke="#111827" stroke-linecap="round" stroke-linejoin="round"/>
<path d="M11.5 4.83398C11.5 6.49084 10.1569 7.83398 8.5 7.83398C6.84315 7.83398 5.5 6.49084 5.5 4.83398C5.5 3.17713 6.84315 1.83398 8.5 1.83398C10.1569 1.83398 11.5 3.17713 11.5 4.83398Z" stroke="#111827"/>
</svg>
